<svg width="111" height="37" viewBox="0 0 111 37" fill="none" xmlns="http://www.w3.org/2000/svg">
<path fill-rule="evenodd" clip-rule="evenodd" d="M16.4409 17.8802C16.3578 17.7499 16.2736 17.6241 16.1903 17.4995C15.67 16.7214 15.1819 15.9916 15.1819 14.5163V8.79172C15.1819 8.58829 15.1831 8.38653 15.1842 8.18657V8.18653C15.1967 6.00819 15.208 4.04454 13.704 2.47697C12.3903 1.11959 10.2555 0.647461 8.61332 0.647461C5.38376 0.647461 1.77104 1.94582 1.00471 6.25402C0.94997 6.72615 1.22366 6.96222 1.49735 7.02123L4.78164 7.37533C5.11007 7.37533 5.32903 7.02123 5.38376 6.72615C5.65745 5.25074 6.80696 4.54254 8.12067 4.54254C8.83227 4.54254 9.5986 4.83762 10.0365 5.4868C10.4542 6.13726 10.4391 6.9574 10.4248 7.73143L10.4248 7.73155C10.4222 7.87045 10.4197 8.00786 10.4197 8.14254V8.61467C10.1498 8.647 9.86865 8.67823 9.57971 8.71031C7.75882 8.91251 5.62903 9.14902 4.07005 9.91303C1.93526 10.9163 0.402588 12.9229 0.402588 15.9327C0.402588 19.7098 2.64685 21.6573 5.49324 21.6573C7.90172 21.6573 9.21544 21.0671 11.0765 19.0016C11.1535 19.1223 11.2243 19.2354 11.2915 19.3428C11.7499 20.0753 12.0446 20.5463 13.0471 21.4212C13.3208 21.5393 13.6492 21.5393 13.8682 21.3622C14.525 20.713 15.784 19.5327 16.4409 18.9425C16.7146 18.6475 16.6598 18.2343 16.4409 17.8802ZM9.76278 16.2868C9.2154 17.2901 8.39432 17.9393 7.40904 17.9393C6.09532 17.9393 5.32899 16.877 5.32899 15.2835C5.32899 12.1557 7.90168 11.6245 10.3649 11.6245V12.3917L10.3668 12.4414C10.4208 13.8358 10.466 15.0037 9.76278 16.2868ZM54.0271 8.76921C54.316 8.73713 54.5972 8.70591 54.867 8.67358L54.9765 8.26046C54.9765 8.18068 54.977 8.09994 54.9774 8.0185C54.9819 7.1963 54.9869 6.30279 54.5386 5.60472C54.1007 4.95554 53.3344 4.66046 52.6228 4.66046C51.3091 4.66046 50.1595 5.36866 49.8859 6.84407C49.8311 7.13915 49.6122 7.49325 49.2837 7.49325L45.9994 7.13915C45.7258 7.08014 45.4521 6.84407 45.5068 6.37194C46.2731 2.06374 49.8859 0.765381 53.1154 0.765381C54.7576 0.765381 56.8923 1.23751 58.2061 2.59489C59.7101 4.16246 59.6988 6.12611 59.6863 8.30445V8.30499V8.30553C59.6852 8.50515 59.684 8.70656 59.684 8.90964V14.6342C59.684 16.1095 60.172 16.8393 60.6924 17.6174L60.6926 17.6178L60.693 17.6182C60.7761 17.7426 60.8601 17.8681 60.943 17.9982C61.1619 18.2932 61.2167 18.7064 60.943 18.9424C60.2861 19.5326 59.0271 20.7129 58.3703 21.3621C58.1513 21.5392 57.8229 21.5392 57.5492 21.4211C56.5467 20.5461 56.252 20.0752 55.7936 19.3427C55.7264 19.2352 55.6556 19.1222 55.5786 19.0014C53.7175 21.067 52.4038 21.6572 49.9953 21.6572C47.1489 21.6572 44.9047 19.7096 44.9047 15.9326C44.9047 12.9818 46.3826 10.9752 48.5174 9.97194C50.0764 9.20793 52.2062 8.97142 54.0271 8.76921ZM51.9112 17.9393C52.8417 17.9393 53.7175 17.2901 54.2649 16.2868C54.8743 15.0822 54.8712 13.9792 54.8676 12.695C54.8673 12.595 54.867 12.494 54.867 12.3917V11.6245C52.4038 11.6245 49.8311 12.1557 49.8311 15.2835C49.8311 16.877 50.5975 17.9393 51.9112 17.9393ZM23.1189 21.3622H19.7251C19.3967 21.3032 19.123 21.0672 19.0683 20.7131V1.88682C19.0683 1.53273 19.342 1.23764 19.7251 1.23764H22.9C23.2284 1.29666 23.5021 1.53273 23.5021 1.88682V4.36551H23.5568C24.4326 2.00486 25.9653 0.883545 28.0454 0.883545C30.1254 0.883545 31.4939 2.00486 32.4244 4.36551C33.2455 2.00486 35.1066 0.883545 37.1319 0.883545C38.5551 0.883545 40.1425 1.53273 41.073 2.94912C42.0131 4.31733 41.9845 6.2077 41.9576 7.98505V7.98515V7.98526V7.98536V7.98546C41.9532 8.2779 41.9489 8.56727 41.9489 8.85076V20.7131C41.9489 21.0672 41.6752 21.3622 41.292 21.3622H37.8982C37.5698 21.3622 37.2961 21.0672 37.2961 20.7131V10.7393C37.2961 10.5944 37.2978 10.415 37.2997 10.2135C37.3086 9.26619 37.322 7.83095 37.1866 7.1983C36.9677 5.95895 36.2013 5.60486 35.2161 5.60486C34.395 5.60486 33.5192 6.19502 33.1907 7.13928C32.8485 7.98269 32.8556 9.34399 32.861 10.3821V10.3829V10.3837V10.3844V10.3852C32.8617 10.5082 32.8623 10.6267 32.8623 10.7393V20.7131C32.8623 21.0672 32.5886 21.3622 32.2055 21.3622H28.8117C28.4833 21.3622 28.2096 21.0672 28.2096 20.7131V10.7393C28.2096 10.5173 28.2132 10.2849 28.2168 10.0469C28.2483 8.00682 28.2863 5.54584 26.1295 5.54584C23.7656 5.54584 23.7711 8.31787 23.7754 10.4714V10.4718V10.4722C23.7756 10.5624 23.7758 10.6515 23.7758 10.7393V20.7131C23.7758 21.0672 23.5021 21.3622 23.1189 21.3622ZM75.9413 16.2867C73.9707 15.1064 71.7264 14.7523 69.5916 14.8113L75.3939 5.89984C75.9413 5.07361 76.2149 4.60148 76.2149 4.18837V1.88673C76.2149 1.47361 75.9413 1.23755 75.5581 1.23755H64.3915C64.0631 1.23755 63.7894 1.53263 63.7894 1.88673V4.54247C63.7894 4.95558 64.0631 5.19165 64.4462 5.19165H70.2485L63.5704 15.5195C63.1873 16.1687 63.1873 16.9359 63.1873 17.349V20.0638C63.1873 20.4769 63.5704 20.89 63.9536 20.6539C67.7305 18.4703 72.2738 18.7064 75.7223 20.6539C76.1602 20.89 76.5434 20.4179 76.5434 20.0638V17.172C76.4886 16.9359 76.3792 16.5228 75.9413 16.2867ZM63.6252 25.0211C62.9683 25.0801 62.9136 24.49 63.4609 24.0769C67.0737 21.3031 73.0949 22.1293 73.7517 23.1326C74.4633 24.0178 73.5328 30.5096 70.139 33.5785C69.6464 34.0506 69.1537 33.8146 69.3727 33.1654L69.412 33.0594C70.197 30.9446 71.8769 26.4187 71.0696 25.3162C70.2806 24.2388 66.0048 24.7415 63.8746 24.9919L63.6252 25.0211ZM45.5068 31.808C52.5681 31.808 60.3409 30.2146 67.4569 26.9687C68.5516 26.4375 69.4274 27.6769 68.3327 28.6211C61.983 33.6375 52.7323 36.3523 44.7952 36.3523C33.6834 36.3523 23.6663 31.9261 16.0577 24.549C15.4556 23.9588 16.003 23.1326 16.7146 23.6047C24.9253 28.7392 35.0518 31.808 45.5068 31.808ZM78.1855 11.2704C78.1855 5.42781 80.8677 0.883545 85.7941 0.883545C90.83 0.883545 93.5122 5.54584 93.5669 11.4475C93.5669 17.1721 90.5564 21.7163 85.7941 21.7163C80.8677 21.7163 78.1855 17.054 78.1855 11.2704ZM83.1666 10.8159C83.1656 13.1685 83.1635 17.8804 85.7941 17.8804C88.4215 17.8804 88.531 13.9263 88.5858 11.5066C88.5858 9.97219 88.531 8.02464 88.0931 6.54923C87.71 5.25087 86.9436 4.71973 85.8489 4.71973C83.3309 4.71973 83.1667 8.37874 83.1667 10.6804L83.1666 10.8159ZM100.573 4.66059C101.504 2.12289 102.818 0.883545 105.172 0.883545C106.649 0.883545 108.127 1.47371 109.167 3.18518C110.043 4.66059 110.043 7.1983 110.043 9.02781V20.8311C109.988 21.1852 109.715 21.4212 109.386 21.4212H105.993C105.664 21.4212 105.445 21.1262 105.39 20.8311V10.6213C105.39 10.463 105.392 10.2991 105.393 10.1315C105.409 8.11207 105.429 5.54584 103.256 5.54584C102.435 5.54584 101.668 6.136 101.285 7.02125C100.792 8.14256 100.738 9.32289 100.738 10.5622V20.654C100.738 21.0081 100.464 21.3032 100.081 21.3032H96.6871C96.3587 21.3032 96.085 21.0081 96.085 20.654V1.88682C96.1397 1.59174 96.4134 1.29666 96.7418 1.29666H99.8619C100.136 1.29666 100.409 1.53273 100.464 1.82781V4.66059H100.573Z" fill="#2E3E5C"/>
</svg>
