<svg width="427" height="481" viewBox="0 0 427 481" fill="none" xmlns="http://www.w3.org/2000/svg">
<path d="M191.743 322.053L176.533 337.263L222.488 383.218L396.277 209.43L350.322 163.475L334.245 179.552L217.31 62.8983L233.3 46.9083L187.345 0.931641L13.9684 174.308L59.9234 220.263L74.7651 205.422L110.125 240.695L-92.0249 442.845L-46.0699 488.8L156.167 286.585L191.722 322.053H191.743ZM198.07 135.482L261.618 198.878L211.027 249.47L147.478 186.073L198.07 135.482ZM427.022 455V520H102.022V455H123.688C123.688 431.102 143.123 411.667 167.022 411.667H362.022C385.92 411.667 405.355 431.102 405.355 455H427.022Z" fill="white" fill-opacity="0.08"/>
</svg>
