<svg width="28" height="29" viewBox="0 0 28 29" fill="none" xmlns="http://www.w3.org/2000/svg">
<g clip-path="url(#clip0_306_17665)">
<path d="M14 0.864258C6.26808 0.864258 0 7.13234 0 14.8643C0 21.4297 4.52032 26.939 10.6182 28.4521V19.1427H7.73136V14.8643H10.6182V13.0207C10.6182 8.2557 12.7747 6.04706 17.453 6.04706C18.34 6.04706 19.8705 6.22122 20.4966 6.39482V10.2728C20.1662 10.2381 19.5922 10.2207 18.8793 10.2207C16.5838 10.2207 15.6968 11.0904 15.6968 13.3511V14.8643H20.2698L19.4841 19.1427H15.6968V28.7618C22.629 27.9246 28.0006 22.0222 28.0006 14.8643C28 7.13234 21.7319 0.864258 14 0.864258Z" fill="#3C80F2"/>
</g>
<defs>
<clipPath id="clip0_306_17665">
<rect width="28" height="28" fill="white" transform="translate(0 0.864258)"/>
</clipPath>
</defs>
</svg>
