<svg width="28" height="29" viewBox="0 0 28 29" fill="none" xmlns="http://www.w3.org/2000/svg">
<g clip-path="url(#clip0_306_17667)">
<path d="M14 3.38535C17.7406 3.38535 18.1836 3.40176 19.6547 3.46738C21.0219 3.52754 21.7602 3.75723 22.2523 3.94863C22.9031 4.2002 23.3734 4.50645 23.8602 4.99316C24.3523 5.48535 24.6531 5.9502 24.9047 6.60098C25.0961 7.09316 25.3258 7.83691 25.3859 9.19863C25.4516 10.6752 25.468 11.1182 25.468 14.8533C25.468 18.5939 25.4516 19.0369 25.3859 20.508C25.3258 21.8752 25.0961 22.6135 24.9047 23.1057C24.6531 23.7564 24.3469 24.2268 23.8602 24.7135C23.368 25.2057 22.9031 25.5064 22.2523 25.758C21.7602 25.9494 21.0164 26.1791 19.6547 26.2393C18.1781 26.3049 17.7352 26.3213 14 26.3213C10.2594 26.3213 9.81641 26.3049 8.34531 26.2393C6.97813 26.1791 6.23984 25.9494 5.74766 25.758C5.09688 25.5064 4.62656 25.2002 4.13984 24.7135C3.64766 24.2213 3.34688 23.7564 3.09531 23.1057C2.90391 22.6135 2.67422 21.8697 2.61406 20.508C2.54844 19.0314 2.53203 18.5885 2.53203 14.8533C2.53203 11.1127 2.54844 10.6697 2.61406 9.19863C2.67422 7.83145 2.90391 7.09316 3.09531 6.60098C3.34688 5.9502 3.65313 5.47988 4.13984 4.99316C4.63203 4.50098 5.09688 4.2002 5.74766 3.94863C6.23984 3.75723 6.98359 3.52754 8.34531 3.46738C9.81641 3.40176 10.2594 3.38535 14 3.38535ZM14 0.864258C10.1992 0.864258 9.72344 0.880664 8.23047 0.946289C6.74297 1.01191 5.72031 1.25254 4.83438 1.59707C3.91016 1.95801 3.12813 2.43379 2.35156 3.21582C1.56953 3.99238 1.09375 4.77441 0.732813 5.69316C0.388281 6.58457 0.147656 7.60176 0.0820313 9.08926C0.0164063 10.5877 0 11.0635 0 14.8643C0 18.665 0.0164063 19.1408 0.0820313 20.6338C0.147656 22.1213 0.388281 23.1439 0.732813 24.0299C1.09375 24.9541 1.56953 25.7361 2.35156 26.5127C3.12813 27.2893 3.91016 27.7705 4.82891 28.126C5.72031 28.4705 6.7375 28.7111 8.225 28.7768C9.71797 28.8424 10.1938 28.8588 13.9945 28.8588C17.7953 28.8588 18.2711 28.8424 19.7641 28.7768C21.2516 28.7111 22.2742 28.4705 23.1602 28.126C24.0789 27.7705 24.8609 27.2893 25.6375 26.5127C26.4141 25.7361 26.8953 24.9541 27.2508 24.0354C27.5953 23.1439 27.8359 22.1268 27.9016 20.6393C27.9672 19.1463 27.9836 18.6705 27.9836 14.8697C27.9836 11.0689 27.9672 10.5932 27.9016 9.1002C27.8359 7.6127 27.5953 6.59004 27.2508 5.7041C26.9063 4.77441 26.4305 3.99238 25.6484 3.21582C24.8719 2.43926 24.0898 1.95801 23.1711 1.60254C22.2797 1.25801 21.2625 1.01738 19.775 0.951758C18.2766 0.880664 17.8008 0.864258 14 0.864258Z" fill="#3C80F2"/>
<path d="M14 7.67285C10.0297 7.67285 6.80859 10.8939 6.80859 14.8643C6.80859 18.8346 10.0297 22.0557 14 22.0557C17.9703 22.0557 21.1914 18.8346 21.1914 14.8643C21.1914 10.8939 17.9703 7.67285 14 7.67285ZM14 19.5291C11.4242 19.5291 9.33516 17.44 9.33516 14.8643C9.33516 12.2885 11.4242 10.1994 14 10.1994C16.5758 10.1994 18.6648 12.2885 18.6648 14.8643C18.6648 17.44 16.5758 19.5291 14 19.5291Z" fill="#3C80F2"/>
<path d="M23.1547 7.38887C23.1547 8.31856 22.4 9.06778 21.4758 9.06778C20.5461 9.06778 19.7969 8.31309 19.7969 7.38887C19.7969 6.45918 20.5516 5.70996 21.4758 5.70996C22.4 5.70996 23.1547 6.46465 23.1547 7.38887Z" fill="#3C80F2"/>
</g>
<defs>
<clipPath id="clip0_306_17667">
<rect width="28" height="28" fill="white" transform="translate(0 0.864258)"/>
</clipPath>
</defs>
</svg>
