<svg width="28" height="29" viewBox="0 0 28 29" fill="none" xmlns="http://www.w3.org/2000/svg">
<g clip-path="url(#clip0_306_17668)">
<path d="M25.9273 0.864258H2.06719C0.924219 0.864258 0 1.7666 0 2.88223V26.8408C0 27.9564 0.924219 28.8643 2.06719 28.8643H25.9273C27.0703 28.8643 28 27.9564 28 26.8463V2.88223C28 1.7666 27.0703 0.864258 25.9273 0.864258ZM8.30703 24.7244H4.15078V11.3588H8.30703V24.7244ZM6.22891 9.5377C4.89453 9.5377 3.81719 8.46035 3.81719 7.13145C3.81719 5.80254 4.89453 4.7252 6.22891 4.7252C7.55781 4.7252 8.63516 5.80254 8.63516 7.13145C8.63516 8.45488 7.55781 9.5377 6.22891 9.5377ZM23.8602 24.7244H19.7094V18.2275C19.7094 16.6799 19.682 14.6838 17.5492 14.6838C15.3891 14.6838 15.0609 16.3736 15.0609 18.1182V24.7244H10.9156V11.3588H14.8969V13.1854H14.9516C15.5039 12.1354 16.8602 11.0252 18.8781 11.0252C23.0836 11.0252 23.8602 13.7924 23.8602 17.3908V24.7244Z" fill="#3C80F2"/>
</g>
<defs>
<clipPath id="clip0_306_17668">
<rect width="28" height="28" fill="white" transform="translate(0 0.864258)"/>
</clipPath>
</defs>
</svg>
