<svg width="80" height="80" viewBox="0 0 80 80" fill="none" xmlns="http://www.w3.org/2000/svg">
<path d="M40 80C62.0914 80 80 62.0914 80 40C80 17.9086 62.0914 0 40 0C17.9086 0 0 17.9086 0 40C0 62.0914 17.9086 80 40 80Z" fill="#3C80F2"/>
<path d="M30.6105 41.2002H39.8736V44.8669H30.6105V41.2002ZM49.1368 33.8669H30.6105V37.5335H49.1368V33.8669ZM49.1368 26.5335H30.6105V30.2002H49.1368V26.5335ZM54.6946 54.8475V63.2002L50.9894 59.5335L47.2841 63.2002V54.8475C45.8712 54.0442 44.7664 52.801 44.1418 51.3117C43.5171 49.8223 43.4077 48.1704 43.8305 46.6131C44.2533 45.0557 45.1846 43.6805 46.4794 42.7015C47.7743 41.7225 49.3599 41.1946 50.9894 41.2002C51.6157 41.2079 52.2383 41.2954 52.842 41.4605V24.7002C52.842 24.214 52.6468 23.7476 52.2994 23.4038C51.952 23.06 51.4807 22.8669 50.9894 22.8669H28.7579C28.2665 22.8669 27.7953 23.06 27.4479 23.4038C27.1005 23.7476 26.9053 24.214 26.9053 24.7002V55.8669H43.5789V59.5335H23.2V24.7002C23.2 23.2415 23.7856 21.8426 24.8279 20.8111C25.8702 19.7797 27.2838 19.2002 28.7579 19.2002H50.9894C52.4634 19.2002 53.8771 19.7797 54.9194 20.8111C55.9617 21.8426 56.5473 23.2415 56.5473 24.7002V43.7339C57.273 44.5403 57.8072 45.4972 58.1109 46.5344C58.4146 47.5717 58.48 48.663 58.3024 49.7284C58.1248 50.7939 57.7087 51.8066 57.0844 52.6923C56.4602 53.5781 55.6437 54.3144 54.6946 54.8475ZM54.6946 48.5335C54.6946 47.8083 54.4773 47.0994 54.0702 46.4964C53.6631 45.8935 53.0844 45.4235 52.4073 45.146C51.7303 44.8685 50.9853 44.7958 50.2665 44.9373C49.5478 45.0788 48.8876 45.428 48.3694 45.9408C47.8512 46.4536 47.4983 47.1069 47.3553 47.8182C47.2124 48.5295 47.2857 49.2667 47.5662 49.9367C47.8466 50.6067 48.3215 51.1794 48.9309 51.5823C49.5402 51.9851 50.2566 52.2002 50.9894 52.2002C51.9721 52.2002 52.9145 51.8139 53.6094 51.1263C54.3043 50.4386 54.6946 49.506 54.6946 48.5335Z" fill="white"/>
</svg>
