<svg width="81" height="80" viewBox="0 0 81 80" fill="none" xmlns="http://www.w3.org/2000/svg">
<path d="M40.3333 80C62.4247 80 80.3333 62.0914 80.3333 40C80.3333 17.9086 62.4247 0 40.3333 0C18.242 0 0.333313 17.9086 0.333313 40C0.333313 62.0914 18.242 80 40.3333 80Z" fill="#3C80F2"/>
<path d="M61.9322 57.4001C61.9322 57.8775 61.7426 58.3353 61.4051 58.6728C61.0675 59.0104 60.6098 59.2 60.1324 59.2H20.5361C20.0587 59.2 19.6009 59.0104 19.2634 58.6728C18.9259 58.3353 18.7362 57.8775 18.7362 57.4001C18.7362 56.9228 18.9259 56.4649 19.2634 56.1274C19.6009 55.7899 20.0587 55.6002 20.5361 55.6002H60.1324C60.6098 55.6002 61.0675 55.7899 61.4051 56.1274C61.7426 56.4649 61.9322 56.9228 61.9322 57.4001ZM19.26 31.3954C18.8722 30.676 18.6925 29.8628 18.7411 29.047C18.7898 28.2312 19.0648 27.445 19.5354 26.7769C20.3044 25.6485 21.3342 24.7224 22.5375 24.077L36.038 17.0503C37.365 16.3602 38.8386 16 40.3342 16C41.8299 16 43.3035 16.3602 44.6304 17.0503L58.1292 24.0824C59.3325 24.7278 60.3623 25.6539 61.1313 26.7823C61.6019 27.4504 61.8769 28.2366 61.9255 29.0524C61.9742 29.8682 61.7945 30.6814 61.4067 31.4008C60.9892 32.1906 60.3629 32.8508 59.5962 33.3093C58.8295 33.7679 57.9517 34.0074 57.0583 34.0016H56.5327V48.4007H58.3326C58.8099 48.4007 59.2677 48.5903 59.6053 48.9279C59.9428 49.2654 60.1324 49.7232 60.1324 50.2006C60.1324 50.6779 59.9428 51.1357 59.6053 51.4733C59.2677 51.8108 58.8099 52.0005 58.3326 52.0005H22.3359C21.8586 52.0005 21.4008 51.8108 21.0632 51.4733C20.7257 51.1357 20.5361 50.6779 20.5361 50.2006C20.5361 49.7232 20.7257 49.2654 21.0632 48.9279C21.4008 48.5903 21.8586 48.4007 22.3359 48.4007H24.1357V34.0016H23.6102C22.716 34.0072 21.8374 33.7671 21.0702 33.3075C20.3031 32.8479 19.6769 32.1865 19.26 31.3954ZM27.7354 48.4007H33.1349V34.0016H27.7354V48.4007ZM36.7346 34.0016V48.4007H43.9339V34.0016H36.7346ZM52.9331 34.0016H47.5336V48.4007H52.9331V34.0016ZM22.4493 29.7269C22.5622 29.9351 22.7303 30.1082 22.935 30.2272C23.1398 30.3463 23.3734 30.4067 23.6102 30.4018H57.0583C57.2951 30.4067 57.5287 30.3463 57.7334 30.2272C57.9382 30.1082 58.1063 29.9351 58.2192 29.7269C58.3014 29.5893 58.3412 29.4305 58.3335 29.2704C58.3259 29.1103 58.271 28.956 58.176 28.8269C57.7399 28.1788 57.154 27.6454 56.4679 27.2718L42.9692 20.2397C42.1557 19.8175 41.2526 19.5971 40.336 19.5971C39.4195 19.5971 38.5164 19.8175 37.7029 20.2397L24.2041 27.2718C23.5184 27.6466 22.9326 28.1805 22.4961 28.8287C22.4009 28.9572 22.3456 29.111 22.3373 29.2707C22.329 29.4305 22.3679 29.5891 22.4493 29.7269Z" fill="white"/>
</svg>
