<svg width="45" height="46" viewBox="0 0 45 46" fill="none" xmlns="http://www.w3.org/2000/svg">
<rect y="0.833008" width="45" height="45" rx="7.2973" fill="#3C80F2"/>
<path d="M19.3074 15.8833H17.179C16.6146 15.8833 16.0732 16.1075 15.674 16.5066C15.2749 16.9058 15.0507 17.4472 15.0507 18.0116V30.7819C15.0507 31.3464 15.2749 31.8878 15.674 32.2869C16.0732 32.686 16.6146 32.9103 17.179 32.9103H27.8209C28.3854 32.9103 28.9268 32.686 29.3259 32.2869C29.7251 31.8878 29.9493 31.3464 29.9493 30.7819V18.0116C29.9493 17.4472 29.7251 16.9058 29.3259 16.5066C28.9268 16.1075 28.3854 15.8833 27.8209 15.8833H25.6926M19.3074 15.8833C19.3074 15.3188 19.5317 14.7774 19.9308 14.3783C20.33 13.9791 20.8713 13.7549 21.4358 13.7549H23.5642C24.1287 13.7549 24.67 13.9791 25.0692 14.3783C25.4683 14.7774 25.6926 15.3188 25.6926 15.8833M19.3074 15.8833C19.3074 16.4477 19.5317 16.9891 19.9308 17.3883C20.33 17.7874 20.8713 18.0116 21.4358 18.0116H23.5642C24.1287 18.0116 24.67 17.7874 25.0692 17.3883C25.4683 16.9891 25.6926 16.4477 25.6926 15.8833M24.6284 22.2684H21.9679C21.5445 22.2684 21.1385 22.4366 20.8391 22.7359C20.5398 23.0353 20.3716 23.4413 20.3716 23.8647C20.3716 24.288 20.5398 24.6941 20.8391 24.9934C21.1385 25.2928 21.5445 25.461 21.9679 25.461H23.0321C23.4554 25.461 23.8615 25.6291 24.1608 25.9285C24.4602 26.2279 24.6284 26.6339 24.6284 27.0572C24.6284 27.4806 24.4602 27.8866 24.1608 28.186C23.8615 28.4854 23.4554 28.6535 23.0321 28.6535H20.3716M22.5 28.6535V29.7177M22.5 21.2042V22.2684" stroke="white" stroke-width="2" stroke-linecap="round" stroke-linejoin="round"/>
</svg>
