<svg width="45" height="46" viewBox="0 0 45 46" fill="none" xmlns="http://www.w3.org/2000/svg">
<rect y="0.833008" width="45" height="45" rx="7.2973" fill="#3C80F2"/>
<path d="M25.9267 20.5394C26.1014 20.3214 26.3547 20.1809 26.632 20.148C26.9093 20.1152 27.1884 20.1927 27.4091 20.3638L27.5092 20.4521L31.7659 24.7088C31.9313 24.8744 32.0376 25.0898 32.0682 25.3218L32.0777 25.4612V30.7822C32.0777 31.0428 31.982 31.2944 31.8088 31.4892C31.6356 31.684 31.3969 31.8084 31.1381 31.8389L31.0136 31.8464H13.9631L13.8461 31.8368L13.729 31.8155L13.6151 31.7793L13.5034 31.7304L13.397 31.6676L13.2969 31.5931L13.2331 31.5346L13.1565 31.4473L13.0884 31.3526L13.0309 31.2504L13.0139 31.2132L12.9713 31.1036L12.9426 30.9908L12.9266 30.8758L12.9223 30.7588L12.9319 30.6417L12.9521 30.53C12.9628 30.4874 12.9755 30.448 12.9894 30.4108L13.0383 30.299L13.1011 30.1926L17.3579 23.8075C17.4889 23.6102 17.682 23.4623 17.9065 23.3871C18.1311 23.312 18.3743 23.3138 18.5977 23.3924L18.719 23.4457L22.2063 25.1888L25.9257 20.5394H25.9267Z" fill="white"/>
<path d="M25.9395 14.1383C26.1161 13.9261 26.3682 13.7909 26.6426 13.7611C26.917 13.7313 27.1922 13.8093 27.4102 13.9786L27.5092 14.067L31.7659 18.3237C31.9568 18.5152 32.0676 18.7722 32.0758 19.0424C32.0841 19.3127 31.9892 19.576 31.8104 19.7788C31.6315 19.9816 31.3822 20.1087 31.1131 20.1343C30.8439 20.16 30.5751 20.0822 30.3612 19.9168L30.2612 19.8285L26.8281 16.3965L22.2531 21.8856C22.1142 22.0522 21.9276 22.1725 21.7183 22.2301C21.5091 22.2877 21.2872 22.28 21.0825 22.208L20.9601 22.1559L17.4973 20.4255L14.8379 23.9714C14.6824 24.1787 14.4566 24.3222 14.2029 24.3749C13.9492 24.4276 13.6849 24.3859 13.4597 24.2576L13.348 24.1842C13.1407 24.0287 12.9972 23.803 12.9445 23.5492C12.8918 23.2955 12.9335 23.0313 13.0617 22.8061L13.1352 22.6943L16.3277 18.4376C16.4642 18.2558 16.6553 18.1225 16.8731 18.0572C17.0908 17.9919 17.3237 17.998 17.5377 18.0747L17.6548 18.1247L21.157 19.8753L25.9395 14.1383Z" fill="white"/>
<path d="M25.9267 20.5394C26.1014 20.3214 26.3547 20.1809 26.632 20.148C26.9093 20.1152 27.1884 20.1927 27.4091 20.3638L27.5092 20.4521L31.7659 24.7088C31.9313 24.8744 32.0376 25.0898 32.0682 25.3218L32.0777 25.4612V30.7822C32.0777 31.0428 31.982 31.2944 31.8088 31.4892C31.6356 31.684 31.3969 31.8084 31.1381 31.8389L31.0136 31.8464H13.9631L13.8461 31.8368L13.729 31.8155L13.6151 31.7793L13.5034 31.7304L13.397 31.6676L13.2969 31.5931L13.2331 31.5346L13.1565 31.4473L13.0884 31.3526L13.0309 31.2504L13.0139 31.2132L12.9713 31.1036L12.9426 30.9908L12.9266 30.8758L12.9223 30.7588L12.9319 30.6417L12.9521 30.53C12.9628 30.4874 12.9755 30.448 12.9894 30.4108L13.0383 30.299L13.1011 30.1926L17.3579 23.8075C17.4889 23.6102 17.682 23.4623 17.9065 23.3871C18.1311 23.312 18.3743 23.3138 18.5977 23.3924L18.719 23.4457L22.2063 25.1888L25.9257 20.5394H25.9267Z" stroke="white"/>
<path d="M25.9395 14.1383C26.1161 13.9261 26.3682 13.7909 26.6426 13.7611C26.917 13.7313 27.1922 13.8093 27.4102 13.9786L27.5092 14.067L31.7659 18.3237C31.9568 18.5152 32.0676 18.7722 32.0758 19.0424C32.0841 19.3127 31.9892 19.576 31.8104 19.7788C31.6315 19.9816 31.3822 20.1087 31.1131 20.1343C30.8439 20.16 30.5751 20.0822 30.3612 19.9168L30.2612 19.8285L26.8281 16.3965L22.2531 21.8856C22.1142 22.0522 21.9276 22.1725 21.7183 22.2301C21.5091 22.2877 21.2872 22.28 21.0825 22.208L20.9601 22.1559L17.4973 20.4255L14.8379 23.9714C14.6824 24.1787 14.4566 24.3222 14.2029 24.3749C13.9492 24.4276 13.6849 24.3859 13.4597 24.2576L13.348 24.1842C13.1407 24.0287 12.9972 23.803 12.9445 23.5492C12.8918 23.2955 12.9335 23.0313 13.0617 22.8061L13.1352 22.6943L16.3277 18.4376C16.4642 18.2558 16.6553 18.1225 16.8731 18.0572C17.0908 17.9919 17.3237 17.998 17.5377 18.0747L17.6548 18.1247L21.157 19.8753L25.9395 14.1383Z" stroke="white"/>
</svg>
