<svg width="45" height="46" viewBox="0 0 45 46" fill="none" xmlns="http://www.w3.org/2000/svg">
<rect y="0.833008" width="45" height="45" rx="7.2973" fill="#3C80F2"/>
<path d="M16.2937 30.6212C16.557 29.7446 17.096 28.9762 17.8306 28.43C18.5652 27.8839 19.4563 27.5891 20.3716 27.5893H24.6284C25.5449 27.589 26.4371 27.8845 27.1722 28.432C27.9073 28.9794 28.4461 29.7494 28.7085 30.6276M12.9223 23.3326C12.9223 24.5903 13.17 25.8358 13.6514 26.9978C14.1327 28.1598 14.8382 29.2157 15.7275 30.105C16.6169 30.9944 17.6728 31.6999 18.8348 32.1812C19.9968 32.6626 21.2422 32.9103 22.5 32.9103C23.7578 32.9103 25.0032 32.6626 26.1652 32.1812C27.3273 31.6999 28.3831 30.9944 29.2725 30.105C30.1618 29.2157 30.8673 28.1598 31.3486 26.9978C31.83 25.8358 32.0777 24.5903 32.0777 23.3326C32.0777 22.0748 31.83 20.8294 31.3486 19.6674C30.8673 18.5053 30.1618 17.4495 29.2725 16.5601C28.3831 15.6708 27.3273 14.9653 26.1652 14.4839C25.0032 14.0026 23.7578 13.7549 22.5 13.7549C21.2422 13.7549 19.9968 14.0026 18.8348 14.4839C17.6728 14.9653 16.6169 15.6708 15.7275 16.5601C14.8382 17.4495 14.1327 18.5053 13.6514 19.6674C13.17 20.8294 12.9223 22.0748 12.9223 23.3326ZM19.3074 21.2042C19.3074 22.0509 19.6438 22.863 20.2425 23.4617C20.8412 24.0604 21.6533 24.3968 22.5 24.3968C23.3467 24.3968 24.1588 24.0604 24.7575 23.4617C25.3562 22.863 25.6926 22.0509 25.6926 21.2042C25.6926 20.3575 25.3562 19.5454 24.7575 18.9467C24.1588 18.348 23.3467 18.0116 22.5 18.0116C21.6533 18.0116 20.8412 18.348 20.2425 18.9467C19.6438 19.5454 19.3074 20.3575 19.3074 21.2042Z" stroke="white" stroke-width="2" stroke-linecap="round" stroke-linejoin="round"/>
</svg>
