<svg width="36" height="36" viewBox="0 0 36 36" fill="none" xmlns="http://www.w3.org/2000/svg">
<path d="M-0.000135422 35.9999L2.53036 26.7554C0.968862 24.0494 0.148364 20.982 0.149864 17.8365C0.154364 8.00248 8.15685 0 17.9893 0C22.7608 0.0015 27.2398 1.86 30.6088 5.23199C33.9763 8.60398 35.8303 13.086 35.8288 17.853C35.8243 27.6884 27.8218 35.6909 17.9893 35.6909C15.0043 35.6894 12.0628 34.9409 9.45734 33.5189L-0.000135422 35.9999ZM9.89534 30.2894C12.4093 31.7819 14.8093 32.6759 17.9833 32.6774C26.1553 32.6774 32.8123 26.0264 32.8168 17.85C32.8198 9.65698 26.1943 3.01499 17.9953 3.01199C9.81734 3.01199 3.16486 9.66298 3.16186 17.838C3.16036 21.1755 4.13836 23.6744 5.78085 26.2889L4.28236 31.7609L9.89534 30.2894ZM26.9758 22.0935C26.8648 21.9075 26.5678 21.7965 26.1208 21.573C25.6753 21.3495 23.4838 20.271 23.0743 20.1225C22.6663 19.974 22.3693 19.899 22.0708 20.346C21.7738 20.7915 20.9188 21.7965 20.6593 22.0935C20.3998 22.3904 20.1388 22.4279 19.6933 22.2045C19.2478 21.981 17.8108 21.5115 16.1083 19.992C14.7838 18.81 13.8883 17.3505 13.6288 16.9035C13.3693 16.458 13.6018 16.2165 13.8238 15.9945C14.0248 15.795 14.2693 15.474 14.4928 15.213C14.7193 14.955 14.7928 14.769 14.9428 14.4705C15.0913 14.1735 15.0178 13.9125 14.9053 13.689C14.7928 13.467 13.9018 11.2725 13.5313 10.38C13.1683 9.51148 12.8008 9.62848 12.5278 9.61498L11.6728 9.59998C11.3758 9.59998 10.8928 9.71098 10.4848 10.158C10.0768 10.605 8.92484 11.682 8.92484 13.8765C8.92484 16.071 10.5223 18.1905 10.7443 18.4875C10.9678 18.7845 13.8868 23.2874 18.3583 25.2179C19.4218 25.6769 20.2528 25.9514 20.8993 26.1569C21.9673 26.4959 22.9393 26.4479 23.7073 26.3339C24.5638 26.2064 26.3443 25.2554 26.7163 24.2144C27.0883 23.1719 27.0883 22.2795 26.9758 22.0935Z" fill="white"/>
</svg>
