<svg width="28" height="29" viewBox="0 0 28 29" fill="none" xmlns="http://www.w3.org/2000/svg">
<path d="M27.7211 9.26387C27.7211 9.26387 27.4477 7.3334 26.6055 6.48574C25.5391 5.37012 24.3469 5.36465 23.8 5.29902C19.8844 5.01465 14.0055 5.01465 14.0055 5.01465H13.9945C13.9945 5.01465 8.11563 5.01465 4.2 5.29902C3.65313 5.36465 2.46094 5.37012 1.39453 6.48574C0.552344 7.3334 0.284375 9.26387 0.284375 9.26387C0.284375 9.26387 0 11.5334 0 13.7975V15.9193C0 18.1834 0.278906 20.4529 0.278906 20.4529C0.278906 20.4529 0.552344 22.3834 1.38906 23.2311C2.45547 24.3467 3.85547 24.3084 4.47891 24.4287C6.72109 24.642 14 24.7076 14 24.7076C14 24.7076 19.8844 24.6967 23.8 24.4178C24.3469 24.3521 25.5391 24.3467 26.6055 23.2311C27.4477 22.3834 27.7211 20.4529 27.7211 20.4529C27.7211 20.4529 28 18.1889 28 15.9193V13.7975C28 11.5334 27.7211 9.26387 27.7211 9.26387ZM11.107 18.4951V10.6256L18.6703 14.574L11.107 18.4951Z" fill="#3C80F2"/>
</svg>
